<mxfile host="app.diagrams.net" agent="Mozilla/5.0 (Windows NT 10.0; Win64; x64) AppleWebKit/537.36 (KHTML, like Gecko) Chrome/131.0.0.0 Safari/537.36" version="25.0.3">
  <diagram name="Страница — 1" id="n6ClyqpR2RiSjvwS_S7T">
    <mxGraphModel dx="1611" dy="1432" grid="0" gridSize="10" guides="1" tooltips="1" connect="1" arrows="1" fold="1" page="0" pageScale="1" pageWidth="827" pageHeight="1169" math="0" shadow="0">
      <root>
        <mxCell id="0" />
        <mxCell id="1" parent="0" />
        <mxCell id="iabv5nbHgXvl6CB_SpEJ-3" value="" style="whiteSpace=wrap;html=1;aspect=fixed;" parent="1" vertex="1">
          <mxGeometry x="36" y="-228" width="827" height="827" as="geometry" />
        </mxCell>
        <mxCell id="iabv5nbHgXvl6CB_SpEJ-1" value="Врач" style="shape=umlActor;verticalLabelPosition=bottom;verticalAlign=top;html=1;" parent="1" vertex="1">
          <mxGeometry x="-54" y="9" width="28" height="60" as="geometry" />
        </mxCell>
        <mxCell id="iabv5nbHgXvl6CB_SpEJ-4" value="Больница" style="text;html=1;align=center;verticalAlign=middle;whiteSpace=wrap;rounded=0;" parent="1" vertex="1">
          <mxGeometry x="411" y="-265" width="60" height="30" as="geometry" />
        </mxCell>
        <mxCell id="iabv5nbHgXvl6CB_SpEJ-5" value="определяет диагноз" style="ellipse;whiteSpace=wrap;html=1;" parent="1" vertex="1">
          <mxGeometry x="72" y="38" width="140" height="70" as="geometry" />
        </mxCell>
        <mxCell id="iabv5nbHgXvl6CB_SpEJ-6" value="делает назначение" style="ellipse;whiteSpace=wrap;html=1;" parent="1" vertex="1">
          <mxGeometry x="69" y="-89" width="140" height="70" as="geometry" />
        </mxCell>
        <mxCell id="iabv5nbHgXvl6CB_SpEJ-7" value="extend" style="endArrow=open;endSize=12;dashed=1;html=1;rounded=0;entryX=0.945;entryY=0.312;entryDx=0;entryDy=0;entryPerimeter=0;exitX=0;exitY=0.5;exitDx=0;exitDy=0;" parent="1" source="iabv5nbHgXvl6CB_SpEJ-8" target="iabv5nbHgXvl6CB_SpEJ-6" edge="1">
          <mxGeometry x="-0.0085" width="160" relative="1" as="geometry">
            <mxPoint x="204" y="21" as="sourcePoint" />
            <mxPoint x="178" y="215" as="targetPoint" />
            <mxPoint as="offset" />
          </mxGeometry>
        </mxCell>
        <mxCell id="iabv5nbHgXvl6CB_SpEJ-8" value="назначает процедуры" style="ellipse;whiteSpace=wrap;html=1;" parent="1" vertex="1">
          <mxGeometry x="281" y="-187" width="140" height="70" as="geometry" />
        </mxCell>
        <mxCell id="iabv5nbHgXvl6CB_SpEJ-9" value="назначает лекарства&amp;nbsp;" style="ellipse;whiteSpace=wrap;html=1;" parent="1" vertex="1">
          <mxGeometry x="285" y="-96" width="140" height="70" as="geometry" />
        </mxCell>
        <mxCell id="iabv5nbHgXvl6CB_SpEJ-10" value="назначает операции" style="ellipse;whiteSpace=wrap;html=1;" parent="1" vertex="1">
          <mxGeometry x="281" y="-6" width="140" height="70" as="geometry" />
        </mxCell>
        <mxCell id="iabv5nbHgXvl6CB_SpEJ-11" value="extend" style="endArrow=open;endSize=12;dashed=1;html=1;rounded=0;exitX=0;exitY=0.5;exitDx=0;exitDy=0;entryX=1;entryY=0.5;entryDx=0;entryDy=0;" parent="1" source="iabv5nbHgXvl6CB_SpEJ-9" target="iabv5nbHgXvl6CB_SpEJ-6" edge="1">
          <mxGeometry width="160" relative="1" as="geometry">
            <mxPoint x="211" y="-54" as="sourcePoint" />
            <mxPoint x="285" y="-61" as="targetPoint" />
          </mxGeometry>
        </mxCell>
        <mxCell id="iabv5nbHgXvl6CB_SpEJ-12" value="extend" style="endArrow=open;endSize=12;dashed=1;html=1;rounded=0;entryX=1;entryY=1;entryDx=0;entryDy=0;exitX=0;exitY=0.5;exitDx=0;exitDy=0;" parent="1" source="iabv5nbHgXvl6CB_SpEJ-10" target="iabv5nbHgXvl6CB_SpEJ-6" edge="1">
          <mxGeometry width="160" relative="1" as="geometry">
            <mxPoint x="231" y="25.5" as="sourcePoint" />
            <mxPoint x="286" y="-12" as="targetPoint" />
          </mxGeometry>
        </mxCell>
        <mxCell id="iabv5nbHgXvl6CB_SpEJ-16" value="Медсестра" style="shape=umlActor;verticalLabelPosition=bottom;verticalAlign=top;html=1;" parent="1" vertex="1">
          <mxGeometry x="-54" y="323" width="30" height="60" as="geometry" />
        </mxCell>
        <mxCell id="iabv5nbHgXvl6CB_SpEJ-17" value="делает назначение" style="ellipse;whiteSpace=wrap;html=1;" parent="1" vertex="1">
          <mxGeometry x="55" y="330" width="140" height="70" as="geometry" />
        </mxCell>
        <mxCell id="iabv5nbHgXvl6CB_SpEJ-19" value="назначает процедуры" style="ellipse;whiteSpace=wrap;html=1;" parent="1" vertex="1">
          <mxGeometry x="300" y="279" width="140" height="70" as="geometry" />
        </mxCell>
        <mxCell id="iabv5nbHgXvl6CB_SpEJ-20" value="назначает лекарства&amp;nbsp;" style="ellipse;whiteSpace=wrap;html=1;" parent="1" vertex="1">
          <mxGeometry x="300" y="377" width="140" height="70" as="geometry" />
        </mxCell>
        <mxCell id="iabv5nbHgXvl6CB_SpEJ-24" style="edgeStyle=orthogonalEdgeStyle;rounded=0;orthogonalLoop=1;jettySize=auto;html=1;exitX=0.5;exitY=1;exitDx=0;exitDy=0;" parent="1" source="iabv5nbHgXvl6CB_SpEJ-3" target="iabv5nbHgXvl6CB_SpEJ-3" edge="1">
          <mxGeometry relative="1" as="geometry" />
        </mxCell>
        <mxCell id="iabv5nbHgXvl6CB_SpEJ-30" style="edgeStyle=orthogonalEdgeStyle;rounded=0;orthogonalLoop=1;jettySize=auto;html=1;exitX=0.5;exitY=0.5;exitDx=0;exitDy=0;exitPerimeter=0;entryX=1;entryY=0.5;entryDx=0;entryDy=0;" parent="1" source="iabv5nbHgXvl6CB_SpEJ-25" target="iabv5nbHgXvl6CB_SpEJ-29" edge="1">
          <mxGeometry relative="1" as="geometry" />
        </mxCell>
        <mxCell id="iabv5nbHgXvl6CB_SpEJ-25" value="Пациент" style="shape=umlActor;verticalLabelPosition=bottom;verticalAlign=top;html=1;" parent="1" vertex="1">
          <mxGeometry x="-185" y="896" width="30" height="60" as="geometry" />
        </mxCell>
        <mxCell id="iabv5nbHgXvl6CB_SpEJ-29" value="лежит в больнице" style="ellipse;whiteSpace=wrap;html=1;" parent="1" vertex="1">
          <mxGeometry x="-471" y="891" width="140" height="70" as="geometry" />
        </mxCell>
        <mxCell id="iabv5nbHgXvl6CB_SpEJ-31" value="выписывает из больницы" style="ellipse;whiteSpace=wrap;html=1;" parent="1" vertex="1">
          <mxGeometry x="113" y="126" width="140" height="70" as="geometry" />
        </mxCell>
        <mxCell id="iabv5nbHgXvl6CB_SpEJ-35" value="" style="endArrow=none;html=1;rounded=0;entryX=0;entryY=0.5;entryDx=0;entryDy=0;exitX=0.5;exitY=0.5;exitDx=0;exitDy=0;exitPerimeter=0;" parent="1" source="iabv5nbHgXvl6CB_SpEJ-1" target="iabv5nbHgXvl6CB_SpEJ-6" edge="1">
          <mxGeometry width="50" height="50" relative="1" as="geometry">
            <mxPoint x="-20" y="-20" as="sourcePoint" />
            <mxPoint x="30" y="-70" as="targetPoint" />
          </mxGeometry>
        </mxCell>
        <mxCell id="iabv5nbHgXvl6CB_SpEJ-36" value="" style="endArrow=none;html=1;rounded=0;exitX=0;exitY=0.5;exitDx=0;exitDy=0;entryX=0.5;entryY=0.5;entryDx=0;entryDy=0;entryPerimeter=0;" parent="1" source="iabv5nbHgXvl6CB_SpEJ-31" target="iabv5nbHgXvl6CB_SpEJ-1" edge="1">
          <mxGeometry width="50" height="50" relative="1" as="geometry">
            <mxPoint x="411" y="202" as="sourcePoint" />
            <mxPoint x="-40" y="33" as="targetPoint" />
          </mxGeometry>
        </mxCell>
        <mxCell id="iabv5nbHgXvl6CB_SpEJ-37" value="" style="endArrow=none;html=1;rounded=0;exitX=0.5;exitY=0.5;exitDx=0;exitDy=0;exitPerimeter=0;entryX=0;entryY=0.5;entryDx=0;entryDy=0;" parent="1" source="iabv5nbHgXvl6CB_SpEJ-16" target="iabv5nbHgXvl6CB_SpEJ-17" edge="1">
          <mxGeometry width="50" height="50" relative="1" as="geometry">
            <mxPoint x="458" y="345" as="sourcePoint" />
            <mxPoint x="508" y="295" as="targetPoint" />
          </mxGeometry>
        </mxCell>
        <mxCell id="iabv5nbHgXvl6CB_SpEJ-40" value="include" style="endArrow=open;endSize=12;dashed=1;html=1;rounded=0;entryX=0;entryY=0.5;entryDx=0;entryDy=0;exitX=1;exitY=0.5;exitDx=0;exitDy=0;" parent="1" source="iabv5nbHgXvl6CB_SpEJ-31" target="iabv5nbHgXvl6CB_SpEJ-41" edge="1">
          <mxGeometry width="160" relative="1" as="geometry">
            <mxPoint x="225" y="111" as="sourcePoint" />
            <mxPoint x="297" y="194" as="targetPoint" />
          </mxGeometry>
        </mxCell>
        <mxCell id="iabv5nbHgXvl6CB_SpEJ-41" value="фиксирует диагноз" style="ellipse;whiteSpace=wrap;html=1;" parent="1" vertex="1">
          <mxGeometry x="323" y="126" width="140" height="70" as="geometry" />
        </mxCell>
        <mxCell id="iabv5nbHgXvl6CB_SpEJ-42" value="include" style="endArrow=open;endSize=12;dashed=1;html=1;rounded=0;entryX=0.5;entryY=0;entryDx=0;entryDy=0;exitX=0.5;exitY=1;exitDx=0;exitDy=0;" parent="1" source="iabv5nbHgXvl6CB_SpEJ-6" target="iabv5nbHgXvl6CB_SpEJ-5" edge="1">
          <mxGeometry width="160" relative="1" as="geometry">
            <mxPoint x="235" y="121" as="sourcePoint" />
            <mxPoint x="318" y="157" as="targetPoint" />
          </mxGeometry>
        </mxCell>
        <mxCell id="iabv5nbHgXvl6CB_SpEJ-44" value="extend" style="endArrow=open;endSize=12;dashed=1;html=1;rounded=0;exitX=0;exitY=0.5;exitDx=0;exitDy=0;entryX=1;entryY=1;entryDx=0;entryDy=0;" parent="1" source="iabv5nbHgXvl6CB_SpEJ-20" target="iabv5nbHgXvl6CB_SpEJ-17" edge="1">
          <mxGeometry x="-0.0085" width="160" relative="1" as="geometry">
            <mxPoint x="253" y="466" as="sourcePoint" />
            <mxPoint x="188" y="362" as="targetPoint" />
            <mxPoint as="offset" />
          </mxGeometry>
        </mxCell>
        <mxCell id="iabv5nbHgXvl6CB_SpEJ-45" value="extend" style="endArrow=open;endSize=12;dashed=1;html=1;rounded=0;entryX=0.94;entryY=0.252;entryDx=0;entryDy=0;entryPerimeter=0;exitX=0;exitY=0.5;exitDx=0;exitDy=0;" parent="1" source="iabv5nbHgXvl6CB_SpEJ-19" target="iabv5nbHgXvl6CB_SpEJ-17" edge="1">
          <mxGeometry x="-0.0085" width="160" relative="1" as="geometry">
            <mxPoint x="220" y="254" as="sourcePoint" />
            <mxPoint x="140" y="339" as="targetPoint" />
            <mxPoint as="offset" />
          </mxGeometry>
        </mxCell>
        <mxCell id="iabv5nbHgXvl6CB_SpEJ-46" value="" style="whiteSpace=wrap;html=1;aspect=fixed;" parent="1" vertex="1">
          <mxGeometry x="1442" y="-316" width="729" height="729" as="geometry" />
        </mxCell>
        <mxCell id="iabv5nbHgXvl6CB_SpEJ-47" value="Врач" style="shape=umlActor;verticalLabelPosition=bottom;verticalAlign=top;html=1;" parent="1" vertex="1">
          <mxGeometry x="1344" y="-172" width="28" height="60" as="geometry" />
        </mxCell>
        <mxCell id="iabv5nbHgXvl6CB_SpEJ-48" value="Больница" style="text;html=1;align=center;verticalAlign=middle;whiteSpace=wrap;rounded=0;" parent="1" vertex="1">
          <mxGeometry x="1786" y="-352" width="60" height="30" as="geometry" />
        </mxCell>
        <mxCell id="iabv5nbHgXvl6CB_SpEJ-49" value="определяет диагноз" style="ellipse;whiteSpace=wrap;html=1;" parent="1" vertex="1">
          <mxGeometry x="1478" y="-50" width="140" height="70" as="geometry" />
        </mxCell>
        <mxCell id="iabv5nbHgXvl6CB_SpEJ-50" value="делает назначение" style="ellipse;whiteSpace=wrap;html=1;" parent="1" vertex="1">
          <mxGeometry x="1475" y="-177" width="140" height="70" as="geometry" />
        </mxCell>
        <mxCell id="iabv5nbHgXvl6CB_SpEJ-51" value="extend" style="endArrow=open;endSize=12;dashed=1;html=1;rounded=0;entryX=0.945;entryY=0.312;entryDx=0;entryDy=0;entryPerimeter=0;exitX=0;exitY=0.5;exitDx=0;exitDy=0;" parent="1" source="iabv5nbHgXvl6CB_SpEJ-52" target="iabv5nbHgXvl6CB_SpEJ-50" edge="1">
          <mxGeometry x="-0.0085" width="160" relative="1" as="geometry">
            <mxPoint x="1610" y="-67" as="sourcePoint" />
            <mxPoint x="1584" y="127" as="targetPoint" />
            <mxPoint as="offset" />
          </mxGeometry>
        </mxCell>
        <mxCell id="iabv5nbHgXvl6CB_SpEJ-52" value="назначает процедуры" style="ellipse;whiteSpace=wrap;html=1;" parent="1" vertex="1">
          <mxGeometry x="1687" y="-275" width="140" height="70" as="geometry" />
        </mxCell>
        <mxCell id="iabv5nbHgXvl6CB_SpEJ-53" value="назначает лекарства&amp;nbsp;" style="ellipse;whiteSpace=wrap;html=1;" parent="1" vertex="1">
          <mxGeometry x="1691" y="-184" width="140" height="70" as="geometry" />
        </mxCell>
        <mxCell id="iabv5nbHgXvl6CB_SpEJ-54" value="назначает операции" style="ellipse;whiteSpace=wrap;html=1;" parent="1" vertex="1">
          <mxGeometry x="1687" y="-94" width="140" height="70" as="geometry" />
        </mxCell>
        <mxCell id="iabv5nbHgXvl6CB_SpEJ-55" value="extend" style="endArrow=open;endSize=12;dashed=1;html=1;rounded=0;exitX=0;exitY=0.5;exitDx=0;exitDy=0;entryX=1;entryY=0.5;entryDx=0;entryDy=0;" parent="1" source="iabv5nbHgXvl6CB_SpEJ-53" target="iabv5nbHgXvl6CB_SpEJ-50" edge="1">
          <mxGeometry width="160" relative="1" as="geometry">
            <mxPoint x="1617" y="-142" as="sourcePoint" />
            <mxPoint x="1691" y="-149" as="targetPoint" />
          </mxGeometry>
        </mxCell>
        <mxCell id="iabv5nbHgXvl6CB_SpEJ-56" value="extend" style="endArrow=open;endSize=12;dashed=1;html=1;rounded=0;entryX=1;entryY=1;entryDx=0;entryDy=0;exitX=0;exitY=0.5;exitDx=0;exitDy=0;" parent="1" source="iabv5nbHgXvl6CB_SpEJ-54" target="iabv5nbHgXvl6CB_SpEJ-50" edge="1">
          <mxGeometry width="160" relative="1" as="geometry">
            <mxPoint x="1637" y="-62.5" as="sourcePoint" />
            <mxPoint x="1692" y="-100" as="targetPoint" />
          </mxGeometry>
        </mxCell>
        <mxCell id="iabv5nbHgXvl6CB_SpEJ-57" value="Медсестра" style="shape=umlActor;verticalLabelPosition=bottom;verticalAlign=top;html=1;" parent="1" vertex="1">
          <mxGeometry x="1351" y="242" width="30" height="60" as="geometry" />
        </mxCell>
        <mxCell id="iabv5nbHgXvl6CB_SpEJ-58" value="читает&lt;div&gt;&amp;nbsp;назначение&lt;/div&gt;" style="ellipse;whiteSpace=wrap;html=1;" parent="1" vertex="1">
          <mxGeometry x="1461" y="242" width="140" height="70" as="geometry" />
        </mxCell>
        <mxCell id="iabv5nbHgXvl6CB_SpEJ-61" style="edgeStyle=orthogonalEdgeStyle;rounded=0;orthogonalLoop=1;jettySize=auto;html=1;exitX=0.5;exitY=1;exitDx=0;exitDy=0;" parent="1" source="iabv5nbHgXvl6CB_SpEJ-46" target="iabv5nbHgXvl6CB_SpEJ-46" edge="1">
          <mxGeometry relative="1" as="geometry" />
        </mxCell>
        <mxCell id="iabv5nbHgXvl6CB_SpEJ-63" value="" style="endArrow=none;html=1;rounded=0;entryX=0;entryY=0.5;entryDx=0;entryDy=0;exitX=0.5;exitY=0.5;exitDx=0;exitDy=0;exitPerimeter=0;" parent="1" source="iabv5nbHgXvl6CB_SpEJ-47" target="iabv5nbHgXvl6CB_SpEJ-50" edge="1">
          <mxGeometry width="50" height="50" relative="1" as="geometry">
            <mxPoint x="1386" y="-108" as="sourcePoint" />
            <mxPoint x="1436" y="-158" as="targetPoint" />
          </mxGeometry>
        </mxCell>
        <mxCell id="iabv5nbHgXvl6CB_SpEJ-65" value="" style="endArrow=none;html=1;rounded=0;exitX=0.5;exitY=0.5;exitDx=0;exitDy=0;exitPerimeter=0;entryX=0;entryY=0.5;entryDx=0;entryDy=0;" parent="1" source="iabv5nbHgXvl6CB_SpEJ-57" target="iabv5nbHgXvl6CB_SpEJ-58" edge="1">
          <mxGeometry width="50" height="50" relative="1" as="geometry">
            <mxPoint x="1864" y="257" as="sourcePoint" />
            <mxPoint x="1914" y="207" as="targetPoint" />
          </mxGeometry>
        </mxCell>
        <mxCell id="iabv5nbHgXvl6CB_SpEJ-72" value="Пациент" style="shape=umlActor;verticalLabelPosition=bottom;verticalAlign=top;html=1;" parent="1" vertex="1">
          <mxGeometry x="2253" y="27" width="30" height="60" as="geometry" />
        </mxCell>
        <mxCell id="iabv5nbHgXvl6CB_SpEJ-73" value="выписаться из больницы" style="ellipse;whiteSpace=wrap;html=1;" parent="1" vertex="1">
          <mxGeometry x="2014" y="22" width="140" height="70" as="geometry" />
        </mxCell>
        <mxCell id="iabv5nbHgXvl6CB_SpEJ-74" value="получить диагноз" style="ellipse;whiteSpace=wrap;html=1;" parent="1" vertex="1">
          <mxGeometry x="1775" y="20" width="140" height="70" as="geometry" />
        </mxCell>
        <mxCell id="iabv5nbHgXvl6CB_SpEJ-75" value="include" style="endArrow=open;endSize=12;dashed=1;html=1;rounded=0;entryX=1;entryY=0.5;entryDx=0;entryDy=0;exitX=0;exitY=0.5;exitDx=0;exitDy=0;" parent="1" source="iabv5nbHgXvl6CB_SpEJ-73" target="iabv5nbHgXvl6CB_SpEJ-74" edge="1">
          <mxGeometry width="160" relative="1" as="geometry">
            <mxPoint x="1555" y="-97" as="sourcePoint" />
            <mxPoint x="1558" y="-40" as="targetPoint" />
          </mxGeometry>
        </mxCell>
        <mxCell id="iabv5nbHgXvl6CB_SpEJ-76" value="" style="endArrow=none;html=1;rounded=0;entryX=0.5;entryY=0.5;entryDx=0;entryDy=0;exitX=1;exitY=0.5;exitDx=0;exitDy=0;entryPerimeter=0;" parent="1" source="iabv5nbHgXvl6CB_SpEJ-73" target="iabv5nbHgXvl6CB_SpEJ-72" edge="1">
          <mxGeometry width="50" height="50" relative="1" as="geometry">
            <mxPoint x="1970" y="-69" as="sourcePoint" />
            <mxPoint x="2087" y="-69" as="targetPoint" />
          </mxGeometry>
        </mxCell>
        <mxCell id="iabv5nbHgXvl6CB_SpEJ-79" value="&lt;p style=&quot;margin:0px;margin-top:4px;text-align:center;&quot;&gt;&lt;b&gt;Patient&lt;/b&gt;&lt;/p&gt;&lt;hr size=&quot;1&quot; style=&quot;border-style:solid;&quot;&gt;&lt;p style=&quot;margin:0px;margin-left:4px;&quot;&gt;+ id: Int&lt;/p&gt;&lt;p style=&quot;margin:0px;margin-left:4px;&quot;&gt;+ diagnosis: String&lt;/p&gt;&lt;hr size=&quot;1&quot; style=&quot;border-style:solid;&quot;&gt;&lt;p style=&quot;margin:0px;margin-left:4px;&quot;&gt;+ checkOut(Diagnosis: String): void&lt;/p&gt;" style="verticalAlign=top;align=left;overflow=fill;html=1;whiteSpace=wrap;" parent="1" vertex="1">
          <mxGeometry x="1412" y="854" width="189" height="130" as="geometry" />
        </mxCell>
        <mxCell id="iabv5nbHgXvl6CB_SpEJ-80" value="&lt;p style=&quot;margin:0px;margin-top:4px;text-align:center;&quot;&gt;&lt;b&gt;Doctor&lt;/b&gt;&lt;/p&gt;&lt;hr size=&quot;1&quot; style=&quot;border-style:solid;&quot;&gt;&lt;p style=&quot;margin:0px;margin-left:4px;&quot;&gt;+ nameOfDoctor: string&lt;/p&gt;&lt;hr size=&quot;1&quot; style=&quot;border-style:solid;&quot;&gt;&lt;p style=&quot;margin:0px;margin-left:4px;&quot;&gt;+ makeAnAppointment( Appointment: string): void&lt;br&gt;+ determineTheDiagnosis(): Diagnosis&lt;/p&gt;" style="verticalAlign=top;align=left;overflow=fill;html=1;whiteSpace=wrap;" parent="1" vertex="1">
          <mxGeometry x="1464" y="529" width="189" height="130" as="geometry" />
        </mxCell>
        <mxCell id="iabv5nbHgXvl6CB_SpEJ-81" value="&lt;p style=&quot;margin:0px;margin-top:4px;text-align:center;&quot;&gt;&lt;b&gt;Nurse&lt;/b&gt;&lt;/p&gt;&lt;p style=&quot;margin:0px;margin-left:4px;&quot;&gt;&lt;br&gt;&lt;/p&gt;&lt;hr size=&quot;1&quot; style=&quot;border-style:solid;&quot;&gt;&lt;p style=&quot;margin:0px;margin-left:4px;&quot;&gt;+ makeAnAppointment( Appointment: string):&amp;nbsp;void&lt;/p&gt;" style="verticalAlign=top;align=left;overflow=fill;html=1;whiteSpace=wrap;" parent="1" vertex="1">
          <mxGeometry x="1795" y="529" width="189" height="130" as="geometry" />
        </mxCell>
        <mxCell id="iabv5nbHgXvl6CB_SpEJ-83" value="&lt;p style=&quot;margin:0px;margin-top:4px;text-align:center;&quot;&gt;&lt;b&gt;Appointment&lt;/b&gt;&lt;/p&gt;&lt;hr size=&quot;1&quot; style=&quot;border-style:solid;&quot;&gt;&lt;p style=&quot;margin:0px;margin-left:4px;&quot;&gt;+ title: String&lt;/p&gt;&lt;p style=&quot;margin:0px;margin-left:4px;&quot;&gt;+ description: String&lt;/p&gt;" style="verticalAlign=top;align=left;overflow=fill;html=1;whiteSpace=wrap;" parent="1" vertex="1">
          <mxGeometry x="1720" y="793" width="160" height="71" as="geometry" />
        </mxCell>
        <mxCell id="iabv5nbHgXvl6CB_SpEJ-84" value="" style="endArrow=open;html=1;endSize=12;startArrow=diamondThin;startSize=14;startFill=0;edgeStyle=orthogonalEdgeStyle;rounded=0;exitX=0.663;exitY=1.006;exitDx=0;exitDy=0;entryX=0.359;entryY=-0.001;entryDx=0;entryDy=0;exitPerimeter=0;entryPerimeter=0;" parent="1" source="iabv5nbHgXvl6CB_SpEJ-80" target="iabv5nbHgXvl6CB_SpEJ-83" edge="1">
          <mxGeometry relative="1" as="geometry">
            <mxPoint x="1565" y="795" as="sourcePoint" />
            <mxPoint x="1725" y="795" as="targetPoint" />
          </mxGeometry>
        </mxCell>
        <mxCell id="iabv5nbHgXvl6CB_SpEJ-86" value="1" style="edgeLabel;resizable=0;html=1;align=right;verticalAlign=top;" parent="iabv5nbHgXvl6CB_SpEJ-84" connectable="0" vertex="1">
          <mxGeometry x="1" relative="1" as="geometry" />
        </mxCell>
        <mxCell id="iabv5nbHgXvl6CB_SpEJ-87" value="" style="endArrow=none;html=1;edgeStyle=orthogonalEdgeStyle;rounded=0;exitX=0.5;exitY=1;exitDx=0;exitDy=0;entryX=0.5;entryY=0;entryDx=0;entryDy=0;" parent="1" source="iabv5nbHgXvl6CB_SpEJ-80" target="iabv5nbHgXvl6CB_SpEJ-79" edge="1">
          <mxGeometry relative="1" as="geometry">
            <mxPoint x="1261" y="775" as="sourcePoint" />
            <mxPoint x="1421" y="775" as="targetPoint" />
          </mxGeometry>
        </mxCell>
        <mxCell id="iabv5nbHgXvl6CB_SpEJ-88" value="1" style="edgeLabel;resizable=0;html=1;align=left;verticalAlign=bottom;" parent="iabv5nbHgXvl6CB_SpEJ-87" connectable="0" vertex="1">
          <mxGeometry x="-1" relative="1" as="geometry">
            <mxPoint x="4" y="18" as="offset" />
          </mxGeometry>
        </mxCell>
        <mxCell id="iabv5nbHgXvl6CB_SpEJ-90" value="*" style="edgeLabel;resizable=0;html=1;align=left;verticalAlign=bottom;" parent="1" connectable="0" vertex="1">
          <mxGeometry x="1497.0000000000005" y="854" as="geometry" />
        </mxCell>
        <mxCell id="iabv5nbHgXvl6CB_SpEJ-91" value="" style="endArrow=open;html=1;endSize=12;startArrow=diamondThin;startSize=14;startFill=0;edgeStyle=orthogonalEdgeStyle;rounded=0;exitX=0.5;exitY=1;exitDx=0;exitDy=0;entryX=0.536;entryY=0.006;entryDx=0;entryDy=0;entryPerimeter=0;" parent="1" source="iabv5nbHgXvl6CB_SpEJ-81" target="iabv5nbHgXvl6CB_SpEJ-83" edge="1">
          <mxGeometry relative="1" as="geometry">
            <mxPoint x="1858" y="696" as="sourcePoint" />
            <mxPoint x="2046" y="829" as="targetPoint" />
          </mxGeometry>
        </mxCell>
        <mxCell id="iabv5nbHgXvl6CB_SpEJ-92" value="1" style="edgeLabel;resizable=0;html=1;align=right;verticalAlign=top;" parent="iabv5nbHgXvl6CB_SpEJ-91" connectable="0" vertex="1">
          <mxGeometry x="1" relative="1" as="geometry" />
        </mxCell>
        <mxCell id="iabv5nbHgXvl6CB_SpEJ-93" value="&lt;p style=&quot;margin:0px;margin-top:4px;text-align:center;&quot;&gt;&lt;b&gt;Диагноз&lt;/b&gt;&lt;/p&gt;&lt;hr size=&quot;1&quot; style=&quot;border-style:solid;&quot;&gt;&lt;p style=&quot;margin:0px;margin-left:4px;&quot;&gt;&lt;span style=&quot;background-color: initial;&quot;&gt;+ description: String&lt;/span&gt;&lt;/p&gt;" style="verticalAlign=top;align=left;overflow=fill;html=1;whiteSpace=wrap;" parent="1" vertex="1">
          <mxGeometry x="1642" y="1068" width="160" height="53" as="geometry" />
        </mxCell>
        <mxCell id="iabv5nbHgXvl6CB_SpEJ-96" value="" style="endArrow=open;html=1;endSize=12;startArrow=diamondThin;startSize=14;startFill=0;edgeStyle=orthogonalEdgeStyle;rounded=0;exitX=0.5;exitY=1;exitDx=0;exitDy=0;entryX=0.5;entryY=0;entryDx=0;entryDy=0;" parent="1" source="iabv5nbHgXvl6CB_SpEJ-79" target="iabv5nbHgXvl6CB_SpEJ-93" edge="1">
          <mxGeometry relative="1" as="geometry">
            <mxPoint x="1442" y="1107" as="sourcePoint" />
            <mxPoint x="1630" y="1240" as="targetPoint" />
          </mxGeometry>
        </mxCell>
        <mxCell id="iabv5nbHgXvl6CB_SpEJ-97" value="1" style="edgeLabel;resizable=0;html=1;align=right;verticalAlign=top;" parent="iabv5nbHgXvl6CB_SpEJ-96" connectable="0" vertex="1">
          <mxGeometry x="1" relative="1" as="geometry" />
        </mxCell>
        <mxCell id="iabv5nbHgXvl6CB_SpEJ-100" value="" style="group" parent="1" vertex="1" connectable="0">
          <mxGeometry x="1497" y="1315" width="36" height="327" as="geometry" />
        </mxCell>
        <mxCell id="iabv5nbHgXvl6CB_SpEJ-98" value="" style="shape=umlLifeline;perimeter=lifelinePerimeter;whiteSpace=wrap;html=1;container=1;dropTarget=0;collapsible=0;recursiveResize=0;outlineConnect=0;portConstraint=eastwest;newEdgeStyle={&quot;curved&quot;:0,&quot;rounded&quot;:0};participant=umlActor;" parent="iabv5nbHgXvl6CB_SpEJ-100" vertex="1">
          <mxGeometry x="8" y="27" width="20" height="300" as="geometry" />
        </mxCell>
        <mxCell id="iabv5nbHgXvl6CB_SpEJ-99" value="&lt;font style=&quot;font-size: 8px;&quot;&gt;пациент&lt;/font&gt;" style="text;html=1;align=center;verticalAlign=middle;whiteSpace=wrap;rounded=0;" parent="iabv5nbHgXvl6CB_SpEJ-100" vertex="1">
          <mxGeometry width="36" height="23" as="geometry" />
        </mxCell>
        <mxCell id="iabv5nbHgXvl6CB_SpEJ-101" value="" style="group" parent="1" vertex="1" connectable="0">
          <mxGeometry x="1636" y="1315" width="36" height="327" as="geometry" />
        </mxCell>
        <mxCell id="iabv5nbHgXvl6CB_SpEJ-102" value="" style="shape=umlLifeline;perimeter=lifelinePerimeter;whiteSpace=wrap;html=1;container=1;dropTarget=0;collapsible=0;recursiveResize=0;outlineConnect=0;portConstraint=eastwest;newEdgeStyle={&quot;curved&quot;:0,&quot;rounded&quot;:0};participant=umlActor;" parent="iabv5nbHgXvl6CB_SpEJ-101" vertex="1">
          <mxGeometry x="8" y="27" width="20" height="300" as="geometry" />
        </mxCell>
        <mxCell id="iabv5nbHgXvl6CB_SpEJ-103" value="&lt;font style=&quot;font-size: 8px;&quot;&gt;медсестра&lt;/font&gt;" style="text;html=1;align=center;verticalAlign=middle;whiteSpace=wrap;rounded=0;" parent="iabv5nbHgXvl6CB_SpEJ-101" vertex="1">
          <mxGeometry width="36" height="23" as="geometry" />
        </mxCell>
        <mxCell id="iabv5nbHgXvl6CB_SpEJ-110" value="" style="endArrow=open;endFill=1;endSize=12;html=1;rounded=0;" parent="iabv5nbHgXvl6CB_SpEJ-101" target="iabv5nbHgXvl6CB_SpEJ-105" edge="1">
          <mxGeometry width="160" relative="1" as="geometry">
            <mxPoint x="-122" y="88" as="sourcePoint" />
            <mxPoint x="19" y="88" as="targetPoint" />
          </mxGeometry>
        </mxCell>
        <mxCell id="iabv5nbHgXvl6CB_SpEJ-111" value="выписаться из больницы" style="edgeLabel;html=1;align=center;verticalAlign=middle;resizable=0;points=[];" parent="iabv5nbHgXvl6CB_SpEJ-110" vertex="1" connectable="0">
          <mxGeometry x="0.4593" y="-2" relative="1" as="geometry">
            <mxPoint x="-121" y="-2" as="offset" />
          </mxGeometry>
        </mxCell>
        <mxCell id="iabv5nbHgXvl6CB_SpEJ-104" value="" style="group" parent="1" vertex="1" connectable="0">
          <mxGeometry x="1772" y="1311" width="36" height="327" as="geometry" />
        </mxCell>
        <mxCell id="iabv5nbHgXvl6CB_SpEJ-105" value="" style="shape=umlLifeline;perimeter=lifelinePerimeter;whiteSpace=wrap;html=1;container=1;dropTarget=0;collapsible=0;recursiveResize=0;outlineConnect=0;portConstraint=eastwest;newEdgeStyle={&quot;curved&quot;:0,&quot;rounded&quot;:0};participant=umlActor;" parent="iabv5nbHgXvl6CB_SpEJ-104" vertex="1">
          <mxGeometry x="8" y="27" width="20" height="300" as="geometry" />
        </mxCell>
        <mxCell id="iabv5nbHgXvl6CB_SpEJ-106" value="&lt;font style=&quot;font-size: 8px;&quot;&gt;врач&lt;/font&gt;" style="text;html=1;align=center;verticalAlign=middle;whiteSpace=wrap;rounded=0;" parent="iabv5nbHgXvl6CB_SpEJ-104" vertex="1">
          <mxGeometry width="36" height="23" as="geometry" />
        </mxCell>
        <mxCell id="iabv5nbHgXvl6CB_SpEJ-114" value="" style="endArrow=open;endFill=1;endSize=12;html=1;rounded=0;" parent="iabv5nbHgXvl6CB_SpEJ-104" edge="1">
          <mxGeometry width="160" relative="1" as="geometry">
            <mxPoint x="18" y="114" as="sourcePoint" />
            <mxPoint x="18" y="147" as="targetPoint" />
            <Array as="points">
              <mxPoint x="68" y="116" />
              <mxPoint x="68" y="147" />
            </Array>
          </mxGeometry>
        </mxCell>
        <mxCell id="iabv5nbHgXvl6CB_SpEJ-115" value="определить диагноз" style="edgeLabel;html=1;align=center;verticalAlign=middle;resizable=0;points=[];" parent="iabv5nbHgXvl6CB_SpEJ-114" vertex="1" connectable="0">
          <mxGeometry x="0.4593" y="-2" relative="1" as="geometry">
            <mxPoint x="31" y="-45" as="offset" />
          </mxGeometry>
        </mxCell>
        <mxCell id="iabv5nbHgXvl6CB_SpEJ-107" value="" style="group" parent="1" vertex="1" connectable="0">
          <mxGeometry x="2689" y="1311" width="36" height="327" as="geometry" />
        </mxCell>
        <mxCell id="iabv5nbHgXvl6CB_SpEJ-108" value="" style="shape=umlLifeline;perimeter=lifelinePerimeter;whiteSpace=wrap;html=1;container=1;dropTarget=0;collapsible=0;recursiveResize=0;outlineConnect=0;portConstraint=eastwest;newEdgeStyle={&quot;curved&quot;:0,&quot;rounded&quot;:0};participant=umlActor;" parent="iabv5nbHgXvl6CB_SpEJ-107" vertex="1">
          <mxGeometry x="8" y="27" width="20" height="300" as="geometry" />
        </mxCell>
        <mxCell id="iabv5nbHgXvl6CB_SpEJ-109" value="&lt;font style=&quot;font-size: 8px;&quot;&gt;больница&lt;/font&gt;" style="text;html=1;align=center;verticalAlign=middle;whiteSpace=wrap;rounded=0;" parent="iabv5nbHgXvl6CB_SpEJ-107" vertex="1">
          <mxGeometry width="36" height="23" as="geometry" />
        </mxCell>
        <mxCell id="iabv5nbHgXvl6CB_SpEJ-117" value="" style="endArrow=open;endFill=1;endSize=12;html=1;rounded=0;" parent="1" edge="1">
          <mxGeometry width="160" relative="1" as="geometry">
            <mxPoint x="1791.65" y="1628" as="sourcePoint" />
            <mxPoint x="1516.35" y="1628" as="targetPoint" />
          </mxGeometry>
        </mxCell>
        <mxCell id="iabv5nbHgXvl6CB_SpEJ-118" value="Сообщить диагноз" style="edgeLabel;html=1;align=center;verticalAlign=middle;resizable=0;points=[];" parent="iabv5nbHgXvl6CB_SpEJ-117" vertex="1" connectable="0">
          <mxGeometry x="0.4593" y="-2" relative="1" as="geometry">
            <mxPoint x="86" y="-9" as="offset" />
          </mxGeometry>
        </mxCell>
        <mxCell id="iabv5nbHgXvl6CB_SpEJ-121" value="" style="endArrow=open;endFill=1;endSize=12;html=1;rounded=0;" parent="1" edge="1">
          <mxGeometry width="160" relative="1" as="geometry">
            <mxPoint x="1791" y="1496" as="sourcePoint" />
            <mxPoint x="1791" y="1529" as="targetPoint" />
            <Array as="points">
              <mxPoint x="1841" y="1498" />
              <mxPoint x="1841" y="1529" />
            </Array>
          </mxGeometry>
        </mxCell>
        <mxCell id="iabv5nbHgXvl6CB_SpEJ-122" value="выполнить назначение" style="edgeLabel;html=1;align=center;verticalAlign=middle;resizable=0;points=[];" parent="iabv5nbHgXvl6CB_SpEJ-121" vertex="1" connectable="0">
          <mxGeometry x="0.4593" y="-2" relative="1" as="geometry">
            <mxPoint x="24" y="-42" as="offset" />
          </mxGeometry>
        </mxCell>
        <mxCell id="iabv5nbHgXvl6CB_SpEJ-125" value="" style="endArrow=open;endFill=1;endSize=12;html=1;rounded=0;" parent="1" edge="1">
          <mxGeometry width="160" relative="1" as="geometry">
            <mxPoint x="1656" y="1497" as="sourcePoint" />
            <mxPoint x="1656" y="1530" as="targetPoint" />
            <Array as="points">
              <mxPoint x="1706" y="1499" />
              <mxPoint x="1706" y="1530" />
            </Array>
          </mxGeometry>
        </mxCell>
        <mxCell id="iabv5nbHgXvl6CB_SpEJ-126" value="выполнить назначение" style="edgeLabel;html=1;align=center;verticalAlign=middle;resizable=0;points=[];" parent="iabv5nbHgXvl6CB_SpEJ-125" vertex="1" connectable="0">
          <mxGeometry x="0.4593" y="-2" relative="1" as="geometry">
            <mxPoint x="27" y="-39" as="offset" />
          </mxGeometry>
        </mxCell>
        <mxCell id="iabv5nbHgXvl6CB_SpEJ-127" value="" style="endArrow=open;endFill=1;endSize=12;html=1;rounded=0;" parent="1" target="iabv5nbHgXvl6CB_SpEJ-102" edge="1">
          <mxGeometry width="160" relative="1" as="geometry">
            <mxPoint x="1786" y="1474.1" as="sourcePoint" />
            <mxPoint x="1659" y="1474.1" as="targetPoint" />
          </mxGeometry>
        </mxCell>
        <mxCell id="iabv5nbHgXvl6CB_SpEJ-128" value="Передать диагноз" style="edgeLabel;html=1;align=center;verticalAlign=middle;resizable=0;points=[];" parent="iabv5nbHgXvl6CB_SpEJ-127" vertex="1" connectable="0">
          <mxGeometry x="0.4593" y="-2" relative="1" as="geometry">
            <mxPoint x="33" y="-8" as="offset" />
          </mxGeometry>
        </mxCell>
        <mxCell id="iabv5nbHgXvl6CB_SpEJ-129" value="" style="endArrow=open;endFill=1;endSize=12;html=1;rounded=0;" parent="1" target="iabv5nbHgXvl6CB_SpEJ-105" edge="1">
          <mxGeometry width="160" relative="1" as="geometry">
            <mxPoint x="1653" y="1566.1" as="sourcePoint" />
            <mxPoint x="1770" y="1566" as="targetPoint" />
          </mxGeometry>
        </mxCell>
        <mxCell id="iabv5nbHgXvl6CB_SpEJ-130" value="вернуть результат" style="edgeLabel;html=1;align=center;verticalAlign=middle;resizable=0;points=[];" parent="iabv5nbHgXvl6CB_SpEJ-129" vertex="1" connectable="0">
          <mxGeometry x="0.4593" y="-2" relative="1" as="geometry">
            <mxPoint x="-19" y="-13" as="offset" />
          </mxGeometry>
        </mxCell>
        <mxCell id="iabv5nbHgXvl6CB_SpEJ-132" value="" style="ellipse;html=1;shape=startState;fillColor=#000000;strokeColor=#ff0000;" parent="1" vertex="1">
          <mxGeometry x="1639" y="1786" width="30" height="30" as="geometry" />
        </mxCell>
        <mxCell id="iabv5nbHgXvl6CB_SpEJ-133" value="" style="edgeStyle=orthogonalEdgeStyle;html=1;verticalAlign=bottom;endArrow=open;endSize=8;strokeColor=#ff0000;rounded=0;" parent="1" source="iabv5nbHgXvl6CB_SpEJ-132" edge="1">
          <mxGeometry relative="1" as="geometry">
            <mxPoint x="1654" y="1876" as="targetPoint" />
          </mxGeometry>
        </mxCell>
        <mxCell id="iabv5nbHgXvl6CB_SpEJ-137" style="edgeStyle=orthogonalEdgeStyle;rounded=0;orthogonalLoop=1;jettySize=auto;html=1;exitX=0.5;exitY=1;exitDx=0;exitDy=0;entryX=0.5;entryY=0;entryDx=0;entryDy=0;" parent="1" source="iabv5nbHgXvl6CB_SpEJ-134" target="iabv5nbHgXvl6CB_SpEJ-136" edge="1">
          <mxGeometry relative="1" as="geometry" />
        </mxCell>
        <mxCell id="iabv5nbHgXvl6CB_SpEJ-134" value="определение диагноза" style="html=1;whiteSpace=wrap;" parent="1" vertex="1">
          <mxGeometry x="1599" y="1877" width="110" height="50" as="geometry" />
        </mxCell>
        <mxCell id="iabv5nbHgXvl6CB_SpEJ-139" style="edgeStyle=orthogonalEdgeStyle;rounded=0;orthogonalLoop=1;jettySize=auto;html=1;exitX=0.5;exitY=1;exitDx=0;exitDy=0;entryX=0.5;entryY=0;entryDx=0;entryDy=0;" parent="1" source="iabv5nbHgXvl6CB_SpEJ-136" target="iabv5nbHgXvl6CB_SpEJ-138" edge="1">
          <mxGeometry relative="1" as="geometry" />
        </mxCell>
        <mxCell id="iabv5nbHgXvl6CB_SpEJ-136" value="выполнение конкретной процедуры" style="html=1;whiteSpace=wrap;" parent="1" vertex="1">
          <mxGeometry x="1599" y="1986" width="110" height="50" as="geometry" />
        </mxCell>
        <mxCell id="iabv5nbHgXvl6CB_SpEJ-141" style="edgeStyle=orthogonalEdgeStyle;rounded=0;orthogonalLoop=1;jettySize=auto;html=1;exitX=0.5;exitY=1;exitDx=0;exitDy=0;entryX=0.5;entryY=0;entryDx=0;entryDy=0;" parent="1" source="iabv5nbHgXvl6CB_SpEJ-138" target="iabv5nbHgXvl6CB_SpEJ-140" edge="1">
          <mxGeometry relative="1" as="geometry" />
        </mxCell>
        <mxCell id="iabv5nbHgXvl6CB_SpEJ-138" value="получение конкретного диагноза" style="html=1;whiteSpace=wrap;" parent="1" vertex="1">
          <mxGeometry x="1599" y="2095" width="110" height="50" as="geometry" />
        </mxCell>
        <mxCell id="iabv5nbHgXvl6CB_SpEJ-140" value="" style="ellipse;html=1;shape=endState;fillColor=#000000;strokeColor=#ff0000;" parent="1" vertex="1">
          <mxGeometry x="1639" y="2199" width="30" height="30" as="geometry" />
        </mxCell>
        <mxCell id="iabv5nbHgXvl6CB_SpEJ-142" value="" style="endArrow=none;html=1;rounded=0;entryX=0;entryY=0.5;entryDx=0;entryDy=0;exitX=0.5;exitY=0.5;exitDx=0;exitDy=0;exitPerimeter=0;" parent="1" source="iabv5nbHgXvl6CB_SpEJ-47" target="iabv5nbHgXvl6CB_SpEJ-49" edge="1">
          <mxGeometry width="50" height="50" relative="1" as="geometry">
            <mxPoint x="1368" y="-132" as="sourcePoint" />
            <mxPoint x="1485" y="-132" as="targetPoint" />
          </mxGeometry>
        </mxCell>
        <mxCell id="iabv5nbHgXvl6CB_SpEJ-143" value="Пациент" style="shape=module;align=left;spacingLeft=20;align=center;verticalAlign=top;whiteSpace=wrap;html=1;" parent="1" vertex="1">
          <mxGeometry x="1281" y="2393" width="100" height="50" as="geometry" />
        </mxCell>
        <mxCell id="iabv5nbHgXvl6CB_SpEJ-144" value="Врач" style="shape=module;align=left;spacingLeft=20;align=center;verticalAlign=top;whiteSpace=wrap;html=1;" parent="1" vertex="1">
          <mxGeometry x="1447" y="2393" width="100" height="50" as="geometry" />
        </mxCell>
        <mxCell id="iabv5nbHgXvl6CB_SpEJ-145" value="Назначение" style="shape=module;align=left;spacingLeft=20;align=center;verticalAlign=top;whiteSpace=wrap;html=1;" parent="1" vertex="1">
          <mxGeometry x="1910" y="2393" width="100" height="50" as="geometry" />
        </mxCell>
        <mxCell id="iabv5nbHgXvl6CB_SpEJ-146" value="Медсестра" style="shape=module;align=left;spacingLeft=20;align=center;verticalAlign=top;whiteSpace=wrap;html=1;" parent="1" vertex="1">
          <mxGeometry x="1756.5" y="2393" width="100" height="50" as="geometry" />
        </mxCell>
        <mxCell id="iabv5nbHgXvl6CB_SpEJ-147" value="Диагноз" style="shape=module;align=left;spacingLeft=20;align=center;verticalAlign=top;whiteSpace=wrap;html=1;" parent="1" vertex="1">
          <mxGeometry x="1609" y="2393" width="100" height="50" as="geometry" />
        </mxCell>
        <mxCell id="iabv5nbHgXvl6CB_SpEJ-148" value="Итоговый диагноз" style="shape=module;align=left;spacingLeft=20;align=center;verticalAlign=top;whiteSpace=wrap;html=1;" parent="1" vertex="1">
          <mxGeometry x="2075" y="2393" width="100" height="50" as="geometry" />
        </mxCell>
        <mxCell id="iabv5nbHgXvl6CB_SpEJ-150" value="" style="endArrow=none;html=1;rounded=0;exitX=1;exitY=0.5;exitDx=0;exitDy=0;entryX=0.093;entryY=0.503;entryDx=0;entryDy=0;entryPerimeter=0;" parent="1" source="iabv5nbHgXvl6CB_SpEJ-143" target="iabv5nbHgXvl6CB_SpEJ-144" edge="1">
          <mxGeometry width="50" height="50" relative="1" as="geometry">
            <mxPoint x="1444" y="2484" as="sourcePoint" />
            <mxPoint x="1555" y="2487" as="targetPoint" />
          </mxGeometry>
        </mxCell>
        <mxCell id="iabv5nbHgXvl6CB_SpEJ-151" value="" style="endArrow=none;html=1;rounded=0;" parent="1" edge="1">
          <mxGeometry width="50" height="50" relative="1" as="geometry">
            <mxPoint x="1459.5" y="2611" as="sourcePoint" />
            <mxPoint x="1570.5" y="2614" as="targetPoint" />
          </mxGeometry>
        </mxCell>
        <mxCell id="iabv5nbHgXvl6CB_SpEJ-152" value="" style="endArrow=none;html=1;rounded=0;exitX=1;exitY=0.5;exitDx=0;exitDy=0;" parent="1" edge="1">
          <mxGeometry width="50" height="50" relative="1" as="geometry">
            <mxPoint x="1547" y="2417.86" as="sourcePoint" />
            <mxPoint x="1619" y="2418" as="targetPoint" />
          </mxGeometry>
        </mxCell>
        <mxCell id="iabv5nbHgXvl6CB_SpEJ-153" value="" style="endArrow=none;html=1;rounded=0;exitX=1;exitY=0.5;exitDx=0;exitDy=0;" parent="1" edge="1">
          <mxGeometry width="50" height="50" relative="1" as="geometry">
            <mxPoint x="1709" y="2417.86" as="sourcePoint" />
            <mxPoint x="1767" y="2418" as="targetPoint" />
          </mxGeometry>
        </mxCell>
        <mxCell id="iabv5nbHgXvl6CB_SpEJ-154" value="" style="endArrow=none;html=1;rounded=0;exitX=1;exitY=0.5;exitDx=0;exitDy=0;" parent="1" edge="1">
          <mxGeometry width="50" height="50" relative="1" as="geometry">
            <mxPoint x="1856.5" y="2417.86" as="sourcePoint" />
            <mxPoint x="1920" y="2418" as="targetPoint" />
          </mxGeometry>
        </mxCell>
        <mxCell id="iabv5nbHgXvl6CB_SpEJ-155" value="" style="endArrow=none;html=1;rounded=0;exitX=1;exitY=0.5;exitDx=0;exitDy=0;entryX=0.093;entryY=0.503;entryDx=0;entryDy=0;entryPerimeter=0;" parent="1" edge="1">
          <mxGeometry width="50" height="50" relative="1" as="geometry">
            <mxPoint x="2010" y="2417.86" as="sourcePoint" />
            <mxPoint x="2085" y="2417.86" as="targetPoint" />
          </mxGeometry>
        </mxCell>
      </root>
    </mxGraphModel>
  </diagram>
</mxfile>
